<?xml version="1.0" encoding="UTF-8"?>
<svg xmlns="http://www.w3.org/2000/svg" xmlns:xlink="http://www.w3.org/1999/xlink" width="106pt" height="54pt" viewBox="0 0 106 54" version="1.1">
<defs>
<clipPath id="clip1">
  <path d="M 0 0.140625 L 35 0.140625 L 35 54 L 0 54 Z M 0 0.140625 "/>
</clipPath>
<clipPath id="clip2">
  <path d="M 40 0.140625 L 44 0.140625 L 44 6 L 40 6 Z M 40 0.140625 "/>
</clipPath>
<clipPath id="clip3">
  <path d="M 58 0.140625 L 62 0.140625 L 62 6 L 58 6 Z M 58 0.140625 "/>
</clipPath>
<clipPath id="clip4">
  <path d="M 66 0.140625 L 69 0.140625 L 69 6 L 66 6 Z M 66 0.140625 "/>
</clipPath>
<clipPath id="clip5">
  <path d="M 83 0.140625 L 85 0.140625 L 85 6 L 83 6 Z M 83 0.140625 "/>
</clipPath>
<clipPath id="clip6">
  <path d="M 85 0.140625 L 88 0.140625 L 88 6 L 85 6 Z M 85 0.140625 "/>
</clipPath>
<clipPath id="clip7">
  <path d="M 102 10 L 105.449219 10 L 105.449219 15 L 102 15 Z M 102 10 "/>
</clipPath>
</defs>
<g id="surface1">
<g clip-path="url(#clip1)" clip-rule="nonzero">
<path style=" stroke:none;fill-rule:nonzero;fill:rgb(98.587036%,78.120422%,2.822876%);fill-opacity:1;" d="M 18.558594 0.140625 C 26.316406 0.140625 32.605469 6.429688 32.605469 14.1875 C 32.605469 19.398438 30.191406 23.917969 26.28125 26.367188 C 26.207031 26.417969 26.152344 26.488281 26.152344 26.585938 C 26.152344 26.757812 26.285156 26.800781 26.296875 26.804688 C 31.363281 28.765625 34.542969 33.941406 34.542969 39.953125 C 34.542969 47.710938 28.253906 54 20.496094 54 L 1.949219 53.996094 C 0.875 53.996094 0 53.121094 0 52.046875 L 0 2.089844 C 0 1.015625 0.875 0.140625 1.949219 0.140625 L 18.558594 0.140625 "/>
</g>
<path style=" stroke:none;fill-rule:nonzero;fill:rgb(25.544739%,45.49408%,54.980469%);fill-opacity:1;" d="M 11.769531 44.464844 C 11.523438 44.464844 11.308594 44.25 11.308594 44.003906 L 11.308594 32.742188 C 11.308594 32.492188 11.523438 32.28125 11.769531 32.28125 L 12.476562 32.28125 C 12.722656 32.28125 12.9375 32.492188 12.9375 32.742188 L 12.9375 37.730469 L 17.324219 37.730469 L 17.324219 32.742188 C 17.324219 32.492188 17.535156 32.28125 17.78125 32.28125 L 18.488281 32.28125 C 18.734375 32.28125 18.949219 32.492188 18.949219 32.742188 L 18.949219 44.003906 C 18.949219 44.25 18.734375 44.464844 18.488281 44.464844 L 17.78125 44.464844 C 17.535156 44.464844 17.324219 44.25 17.324219 44.003906 L 17.324219 39.160156 L 12.9375 39.160156 L 12.9375 44.003906 C 12.9375 44.25 12.722656 44.464844 12.476562 44.464844 L 11.769531 44.464844 "/>
<path style=" stroke:none;fill-rule:nonzero;fill:rgb(25.544739%,45.49408%,54.980469%);fill-opacity:1;" d="M 11.722656 21.816406 C 11.476562 21.816406 11.261719 21.605469 11.261719 21.355469 L 11.261719 10.09375 C 11.261719 9.84375 11.476562 9.632812 11.722656 9.632812 L 18.5 9.632812 C 18.746094 9.632812 18.957031 9.84375 18.957031 10.09375 L 18.957031 10.570312 C 18.957031 10.816406 18.746094 11.03125 18.5 11.03125 L 12.890625 11.03125 L 12.890625 14.945312 L 17.664062 14.945312 C 17.914062 14.945312 18.128906 15.15625 18.128906 15.402344 L 18.128906 15.882812 C 18.128906 16.128906 17.914062 16.34375 17.664062 16.34375 L 12.890625 16.34375 L 12.890625 21.355469 C 12.890625 21.605469 12.679688 21.816406 12.429688 21.816406 L 11.722656 21.816406 "/>
<g clip-path="url(#clip2)" clip-rule="nonzero">
<path style=" stroke:none;fill-rule:nonzero;fill:rgb(98.587036%,78.120422%,2.822876%);fill-opacity:1;" d="M 41.0625 5.015625 L 41.902344 5.015625 C 42.625 5.015625 42.878906 4.738281 42.878906 4.105469 C 42.878906 3.484375 42.644531 3.199219 41.933594 3.199219 L 41.0625 3.199219 Z M 41.054688 2.613281 L 41.910156 2.613281 C 42.519531 2.613281 42.652344 2.355469 42.652344 1.816406 C 42.652344 1.277344 42.480469 0.996094 41.871094 0.996094 L 41.054688 0.996094 Z M 40.566406 5.59375 C 40.460938 5.59375 40.371094 5.503906 40.371094 5.398438 L 40.371094 0.613281 C 40.371094 0.511719 40.460938 0.417969 40.566406 0.417969 L 41.894531 0.417969 C 42.984375 0.417969 43.382812 0.992188 43.382812 1.800781 C 43.382812 2.34375 43.246094 2.636719 42.75 2.84375 C 43.253906 2.988281 43.613281 3.378906 43.613281 4.144531 C 43.613281 5.171875 42.9375 5.59375 41.976562 5.59375 L 40.566406 5.59375 "/>
</g>
<path style=" stroke:none;fill-rule:nonzero;fill:rgb(98.587036%,78.120422%,2.822876%);fill-opacity:1;" d="M 46.230469 2.242188 C 45.796875 2.242188 45.527344 2.46875 45.472656 3.371094 L 46.96875 3.371094 C 46.96875 2.507812 46.773438 2.242188 46.230469 2.242188 Z M 46.316406 5.691406 C 45.332031 5.691406 44.777344 5.121094 44.777344 3.707031 C 44.777344 2.28125 45.359375 1.734375 46.246094 1.734375 C 47.140625 1.734375 47.652344 2.242188 47.652344 3.601562 L 47.652344 3.738281 C 47.652344 3.804688 47.597656 3.859375 47.53125 3.859375 L 45.464844 3.859375 C 45.480469 4.886719 45.707031 5.144531 46.328125 5.144531 C 46.652344 5.144531 46.863281 5.042969 47.058594 4.910156 C 47.148438 4.84375 47.277344 4.863281 47.335938 4.949219 L 47.457031 5.105469 C 47.515625 5.1875 47.5 5.316406 47.410156 5.375 C 47.101562 5.59375 46.789062 5.691406 46.316406 5.691406 "/>
<path style=" stroke:none;fill-rule:nonzero;fill:rgb(98.587036%,78.120422%,2.822876%);fill-opacity:1;" d="M 49.152344 5.59375 C 49.046875 5.59375 48.957031 5.503906 48.957031 5.398438 L 48.957031 2.027344 C 48.957031 1.921875 49.046875 1.832031 49.152344 1.832031 L 49.265625 1.832031 C 49.378906 1.832031 49.476562 1.914062 49.5 2.027344 L 49.566406 2.363281 C 49.84375 2.019531 50.1875 1.765625 50.625 1.765625 C 50.648438 1.765625 50.675781 1.765625 50.699219 1.773438 C 50.730469 1.78125 50.761719 1.808594 50.753906 1.839844 L 50.699219 2.363281 C 50.691406 2.417969 50.640625 2.460938 50.578125 2.457031 C 50.542969 2.449219 50.496094 2.449219 50.460938 2.449219 C 50.113281 2.449219 49.882812 2.574219 49.601562 2.832031 L 49.601562 5.398438 C 49.601562 5.503906 49.515625 5.59375 49.410156 5.59375 L 49.152344 5.59375 "/>
<path style=" stroke:none;fill-rule:nonzero;fill:rgb(98.587036%,78.120422%,2.822876%);fill-opacity:1;" d="M 52.105469 5.59375 C 52 5.59375 51.910156 5.503906 51.910156 5.398438 L 51.910156 2.027344 C 51.910156 1.921875 52 1.832031 52.105469 1.832031 L 52.21875 1.832031 C 52.332031 1.832031 52.429688 1.914062 52.449219 2.019531 L 52.511719 2.296875 C 52.839844 1.96875 53.214844 1.734375 53.660156 1.734375 C 54.199219 1.734375 54.566406 2.011719 54.566406 2.652344 L 54.566406 5.398438 C 54.566406 5.503906 54.476562 5.59375 54.371094 5.59375 L 54.117188 5.59375 C 54.011719 5.59375 53.921875 5.503906 53.921875 5.398438 L 53.921875 2.851562 C 53.921875 2.425781 53.800781 2.304688 53.464844 2.304688 C 53.164062 2.304688 52.828125 2.515625 52.554688 2.753906 L 52.554688 5.398438 C 52.554688 5.503906 52.464844 5.59375 52.359375 5.59375 L 52.105469 5.59375 "/>
<g clip-path="url(#clip3)" clip-rule="nonzero">
<path style=" stroke:none;fill-rule:nonzero;fill:rgb(98.587036%,78.120422%,2.822876%);fill-opacity:1;" d="M 59.433594 5.691406 C 58.714844 5.691406 58.023438 5.308594 58.023438 4.105469 L 58.023438 0.613281 C 58.023438 0.511719 58.113281 0.417969 58.21875 0.417969 L 58.519531 0.417969 C 58.625 0.417969 58.714844 0.511719 58.714844 0.613281 L 58.714844 3.984375 C 58.714844 4.742188 58.855469 5.089844 59.507812 5.089844 C 60.050781 5.089844 60.425781 4.820312 60.644531 4.609375 L 60.644531 0.613281 C 60.644531 0.511719 60.734375 0.417969 60.839844 0.417969 L 61.140625 0.417969 C 61.242188 0.417969 61.335938 0.511719 61.335938 0.613281 L 61.335938 5.398438 C 61.335938 5.503906 61.242188 5.59375 61.140625 5.59375 L 61.019531 5.59375 C 60.90625 5.59375 60.800781 5.511719 60.777344 5.40625 L 60.703125 5.113281 C 60.410156 5.40625 59.988281 5.691406 59.433594 5.691406 "/>
</g>
<path style=" stroke:none;fill-rule:nonzero;fill:rgb(98.587036%,78.120422%,2.822876%);fill-opacity:1;" d="M 63.15625 5.59375 C 63.050781 5.59375 62.960938 5.503906 62.960938 5.398438 L 62.960938 2.027344 C 62.960938 1.921875 63.050781 1.832031 63.15625 1.832031 L 63.269531 1.832031 C 63.378906 1.832031 63.476562 1.914062 63.5 2.019531 L 63.558594 2.296875 C 63.890625 1.96875 64.265625 1.734375 64.710938 1.734375 C 65.25 1.734375 65.617188 2.011719 65.617188 2.652344 L 65.617188 5.398438 C 65.617188 5.503906 65.527344 5.59375 65.421875 5.59375 L 65.167969 5.59375 C 65.0625 5.59375 64.972656 5.503906 64.972656 5.398438 L 64.972656 2.851562 C 64.972656 2.425781 64.851562 2.304688 64.515625 2.304688 C 64.214844 2.304688 63.875 2.515625 63.605469 2.753906 L 63.605469 5.398438 C 63.605469 5.503906 63.515625 5.59375 63.410156 5.59375 L 63.15625 5.59375 "/>
<g clip-path="url(#clip4)" clip-rule="nonzero">
<path style=" stroke:none;fill-rule:nonzero;fill:rgb(98.587036%,78.120422%,2.822876%);fill-opacity:1;" d="M 67.644531 1.132812 C 67.390625 1.132812 67.203125 0.929688 67.203125 0.675781 C 67.203125 0.414062 67.398438 0.210938 67.652344 0.210938 C 67.914062 0.210938 68.109375 0.40625 68.109375 0.675781 C 68.109375 0.929688 67.914062 1.132812 67.644531 1.132812 Z M 67.53125 5.59375 C 67.425781 5.59375 67.335938 5.503906 67.335938 5.398438 L 67.335938 2.335938 L 66.976562 2.273438 C 66.863281 2.261719 66.78125 2.160156 66.78125 2.046875 L 66.78125 2.027344 C 66.78125 1.921875 66.871094 1.832031 66.976562 1.832031 L 67.789062 1.832031 C 67.894531 1.832031 67.984375 1.921875 67.984375 2.027344 L 67.984375 5.398438 C 67.984375 5.503906 67.894531 5.59375 67.789062 5.59375 L 67.53125 5.59375 "/>
</g>
<path style=" stroke:none;fill-rule:nonzero;fill:rgb(98.587036%,78.120422%,2.822876%);fill-opacity:1;" d="M 70.5625 5.59375 C 70.449219 5.59375 70.34375 5.519531 70.308594 5.40625 L 69.191406 2.019531 C 69.160156 1.921875 69.226562 1.832031 69.324219 1.832031 L 69.640625 1.832031 C 69.753906 1.832031 69.859375 1.90625 69.886719 2.019531 L 70.472656 3.984375 C 70.554688 4.257812 70.644531 4.707031 70.707031 4.960938 L 70.714844 4.960938 C 70.757812 4.738281 70.855469 4.265625 70.945312 3.96875 L 71.53125 2.019531 C 71.5625 1.90625 71.667969 1.832031 71.78125 1.832031 L 72.058594 1.832031 C 72.15625 1.832031 72.222656 1.921875 72.191406 2.019531 L 71.050781 5.40625 C 71.015625 5.519531 70.910156 5.59375 70.796875 5.59375 L 70.5625 5.59375 "/>
<path style=" stroke:none;fill-rule:nonzero;fill:rgb(98.587036%,78.120422%,2.822876%);fill-opacity:1;" d="M 74.558594 2.242188 C 74.121094 2.242188 73.851562 2.46875 73.800781 3.371094 L 75.292969 3.371094 C 75.292969 2.507812 75.097656 2.242188 74.558594 2.242188 Z M 74.640625 5.691406 C 73.65625 5.691406 73.101562 5.121094 73.101562 3.707031 C 73.101562 2.28125 73.6875 1.734375 74.574219 1.734375 C 75.464844 1.734375 75.976562 2.242188 75.976562 3.601562 L 75.976562 3.738281 C 75.976562 3.804688 75.921875 3.859375 75.855469 3.859375 L 73.792969 3.859375 C 73.808594 4.886719 74.03125 5.144531 74.65625 5.144531 C 74.976562 5.144531 75.1875 5.042969 75.382812 4.910156 C 75.472656 4.84375 75.601562 4.863281 75.660156 4.949219 L 75.78125 5.105469 C 75.839844 5.1875 75.828125 5.316406 75.734375 5.375 C 75.429688 5.59375 75.113281 5.691406 74.640625 5.691406 "/>
<path style=" stroke:none;fill-rule:nonzero;fill:rgb(98.587036%,78.120422%,2.822876%);fill-opacity:1;" d="M 77.480469 5.59375 C 77.375 5.59375 77.285156 5.503906 77.285156 5.398438 L 77.285156 2.027344 C 77.285156 1.921875 77.375 1.832031 77.480469 1.832031 L 77.59375 1.832031 C 77.703125 1.832031 77.800781 1.914062 77.824219 2.027344 L 77.890625 2.363281 C 78.167969 2.019531 78.515625 1.765625 78.949219 1.765625 C 78.972656 1.765625 79.003906 1.765625 79.027344 1.773438 C 79.054688 1.78125 79.085938 1.808594 79.078125 1.839844 L 79.027344 2.363281 C 79.019531 2.417969 78.964844 2.460938 78.90625 2.457031 C 78.867188 2.449219 78.824219 2.449219 78.785156 2.449219 C 78.441406 2.449219 78.207031 2.574219 77.929688 2.832031 L 77.929688 5.398438 C 77.929688 5.503906 77.839844 5.59375 77.734375 5.59375 L 77.480469 5.59375 "/>
<path style=" stroke:none;fill-rule:nonzero;fill:rgb(98.587036%,78.120422%,2.822876%);fill-opacity:1;" d="M 81.15625 5.691406 C 80.742188 5.691406 80.34375 5.554688 80.066406 5.398438 C 79.976562 5.339844 79.945312 5.21875 80 5.128906 L 80.082031 4.984375 C 80.132812 4.886719 80.253906 4.855469 80.34375 4.910156 C 80.605469 5.058594 80.878906 5.148438 81.183594 5.148438 C 81.695312 5.148438 81.851562 4.949219 81.851562 4.59375 C 81.851562 4.171875 81.65625 4.09375 81.058594 3.925781 C 80.53125 3.78125 80.097656 3.507812 80.097656 2.761719 C 80.097656 2.214844 80.449219 1.734375 81.277344 1.734375 C 81.636719 1.734375 81.90625 1.792969 82.148438 1.890625 C 82.242188 1.9375 82.289062 2.054688 82.242188 2.15625 L 82.175781 2.304688 C 82.132812 2.402344 82.019531 2.457031 81.914062 2.410156 C 81.695312 2.3125 81.523438 2.28125 81.296875 2.28125 C 80.894531 2.28125 80.707031 2.425781 80.707031 2.746094 C 80.707031 3.101562 80.863281 3.191406 81.378906 3.332031 C 81.957031 3.488281 82.484375 3.714844 82.484375 4.566406 C 82.484375 5.34375 82.039062 5.691406 81.15625 5.691406 "/>
<g clip-path="url(#clip5)" clip-rule="nonzero">
<path style=" stroke:none;fill-rule:nonzero;fill:rgb(98.587036%,78.120422%,2.822876%);fill-opacity:1;" d="M 84.308594 1.132812 C 84.054688 1.132812 83.867188 0.929688 83.867188 0.675781 C 83.867188 0.414062 84.0625 0.210938 84.316406 0.210938 C 84.582031 0.210938 84.777344 0.40625 84.777344 0.675781 C 84.777344 0.929688 84.582031 1.132812 84.308594 1.132812 Z M 84.199219 5.59375 C 84.09375 5.59375 84.003906 5.503906 84.003906 5.398438 L 84.003906 2.335938 L 83.640625 2.273438 C 83.53125 2.261719 83.449219 2.160156 83.449219 2.046875 L 83.449219 2.027344 C 83.449219 1.921875 83.535156 1.832031 83.640625 1.832031 L 84.453125 1.832031 C 84.558594 1.832031 84.648438 1.921875 84.648438 2.027344 L 84.648438 5.398438 C 84.648438 5.503906 84.558594 5.59375 84.453125 5.59375 L 84.199219 5.59375 "/>
</g>
<g clip-path="url(#clip6)" clip-rule="nonzero">
<path style=" stroke:none;fill-rule:nonzero;fill:rgb(98.587036%,78.120422%,2.822876%);fill-opacity:1;" d="M 86.050781 2.355469 C 85.945312 2.355469 85.855469 2.265625 85.855469 2.160156 L 85.855469 2.027344 C 85.855469 1.921875 85.945312 1.832031 86.050781 1.832031 L 86.28125 1.832031 L 86.28125 1.058594 C 86.28125 0.945312 86.363281 0.847656 86.46875 0.820312 L 86.742188 0.765625 C 86.839844 0.742188 86.929688 0.820312 86.929688 0.914062 L 86.929688 1.832031 L 87.507812 1.832031 C 87.609375 1.832031 87.703125 1.921875 87.703125 2.027344 L 87.703125 2.160156 C 87.703125 2.265625 87.609375 2.355469 87.507812 2.355469 L 86.929688 2.355469 L 86.929688 4.828125 C 86.929688 5.066406 87.027344 5.171875 87.234375 5.171875 C 87.328125 5.171875 87.402344 5.15625 87.46875 5.136719 C 87.566406 5.105469 87.671875 5.164062 87.703125 5.261719 L 87.730469 5.375 C 87.753906 5.480469 87.703125 5.585938 87.597656 5.621094 C 87.476562 5.660156 87.339844 5.691406 87.183594 5.691406 C 86.671875 5.691406 86.28125 5.488281 86.28125 4.886719 L 86.28125 2.355469 L 86.050781 2.355469 "/>
</g>
<path style=" stroke:none;fill-rule:nonzero;fill:rgb(98.587036%,78.120422%,2.822876%);fill-opacity:1;" d="M 89.292969 7.101562 C 89.1875 7.132812 89.082031 7.066406 89.050781 6.960938 L 89.015625 6.816406 C 88.984375 6.710938 89.042969 6.597656 89.148438 6.570312 C 89.617188 6.417969 89.808594 6.214844 90 5.59375 L 89.992188 5.59375 C 89.902344 5.59375 89.824219 5.53125 89.796875 5.449219 L 88.730469 2.019531 C 88.699219 1.921875 88.765625 1.832031 88.863281 1.832031 L 89.179688 1.832031 C 89.292969 1.832031 89.398438 1.90625 89.425781 2.019531 L 90.007812 4.046875 C 90.089844 4.347656 90.179688 4.789062 90.230469 5.074219 L 90.238281 5.074219 C 90.289062 4.804688 90.359375 4.414062 90.472656 4.046875 L 91.078125 2.019531 C 91.117188 1.90625 91.222656 1.832031 91.335938 1.832031 L 91.613281 1.832031 C 91.710938 1.832031 91.777344 1.921875 91.746094 2.019531 L 90.5625 5.714844 C 90.222656 6.726562 89.929688 6.953125 89.292969 7.101562 "/>
<path style=" stroke:none;fill-rule:nonzero;fill:rgb(98.587036%,78.120422%,2.822876%);fill-opacity:1;" d="M 41.910156 14.179688 C 42.480469 14.179688 42.75 13.871094 42.75 12.714844 C 42.75 11.550781 42.472656 11.242188 41.902344 11.242188 C 41.332031 11.242188 41.0625 11.542969 41.0625 12.707031 C 41.0625 13.863281 41.339844 14.179688 41.910156 14.179688 Z M 41.910156 14.691406 C 40.992188 14.691406 40.371094 14.121094 40.371094 12.707031 C 40.371094 11.296875 40.980469 10.734375 41.894531 10.734375 C 42.808594 10.734375 43.441406 11.296875 43.441406 12.707031 C 43.441406 14.121094 42.824219 14.691406 41.910156 14.691406 "/>
<path style=" stroke:none;fill-rule:nonzero;fill:rgb(98.587036%,78.120422%,2.822876%);fill-opacity:1;" d="M 44.554688 11.355469 C 44.449219 11.355469 44.359375 11.265625 44.359375 11.160156 L 44.359375 11.027344 C 44.359375 10.921875 44.449219 10.832031 44.554688 10.832031 L 44.773438 10.832031 L 44.773438 10.230469 C 44.773438 9.367188 45.214844 9.113281 45.769531 9.113281 C 45.988281 9.113281 46.199219 9.152344 46.378906 9.222656 C 46.476562 9.261719 46.519531 9.382812 46.476562 9.480469 L 46.414062 9.605469 C 46.371094 9.707031 46.25 9.757812 46.144531 9.726562 C 46.054688 9.699219 45.957031 9.683594 45.859375 9.683594 C 45.542969 9.683594 45.417969 9.839844 45.417969 10.222656 L 45.417969 10.832031 L 45.929688 10.832031 C 46.03125 10.832031 46.121094 10.921875 46.121094 11.027344 L 46.121094 11.160156 C 46.121094 11.265625 46.03125 11.355469 45.929688 11.355469 L 45.417969 11.355469 L 45.417969 14.398438 C 45.417969 14.503906 45.328125 14.59375 45.222656 14.59375 L 44.96875 14.59375 C 44.863281 14.59375 44.773438 14.503906 44.773438 14.398438 L 44.773438 11.355469 L 44.554688 11.355469 "/>
<path style=" stroke:none;fill-rule:nonzero;fill:rgb(98.587036%,78.120422%,2.822876%);fill-opacity:1;" d="M 50.285156 11.613281 L 50.023438 12.507812 L 51.285156 12.507812 L 51.035156 11.613281 C 50.8125 10.808594 50.75 10.515625 50.675781 10.117188 L 50.660156 10.117188 C 50.585938 10.53125 50.519531 10.824219 50.285156 11.613281 Z M 48.902344 14.59375 C 48.804688 14.59375 48.738281 14.503906 48.769531 14.40625 L 50.246094 9.601562 C 50.285156 9.488281 50.390625 9.414062 50.503906 9.414062 L 50.878906 9.414062 C 50.992188 9.414062 51.097656 9.488281 51.125 9.601562 L 52.574219 14.40625 C 52.597656 14.503906 52.53125 14.59375 52.433594 14.59375 L 52.066406 14.59375 C 51.953125 14.59375 51.847656 14.519531 51.816406 14.40625 L 51.449219 13.09375 L 49.851562 13.09375 L 49.46875 14.40625 C 49.4375 14.519531 49.332031 14.59375 49.21875 14.59375 L 48.902344 14.59375 "/>
<path style=" stroke:none;fill-rule:nonzero;fill:rgb(98.587036%,78.120422%,2.822876%);fill-opacity:1;" d="M 55.285156 14.136719 C 55.816406 14.136719 56.050781 13.941406 56.050781 12.730469 C 56.050781 11.523438 55.855469 11.289062 55.34375 11.289062 C 54.976562 11.289062 54.71875 11.476562 54.449219 11.730469 L 54.449219 13.765625 C 54.667969 13.976562 54.96875 14.136719 55.285156 14.136719 Z M 54 16.101562 C 53.894531 16.101562 53.804688 16.011719 53.804688 15.90625 L 53.804688 11.027344 C 53.804688 10.921875 53.894531 10.832031 54 10.832031 L 54.113281 10.832031 C 54.226562 10.832031 54.332031 10.914062 54.351562 11.019531 L 54.414062 11.261719 C 54.699219 10.945312 55.058594 10.734375 55.457031 10.734375 C 56.175781 10.734375 56.738281 11.140625 56.738281 12.683594 C 56.738281 14.097656 56.328125 14.691406 55.449219 14.691406 C 55.035156 14.691406 54.691406 14.503906 54.449219 14.269531 L 54.449219 15.90625 C 54.449219 16.011719 54.359375 16.101562 54.253906 16.101562 L 54 16.101562 "/>
<path style=" stroke:none;fill-rule:nonzero;fill:rgb(98.587036%,78.120422%,2.822876%);fill-opacity:1;" d="M 59.585938 14.136719 C 60.117188 14.136719 60.351562 13.941406 60.351562 12.730469 C 60.351562 11.523438 60.15625 11.289062 59.644531 11.289062 C 59.277344 11.289062 59.023438 11.476562 58.753906 11.730469 L 58.753906 13.765625 C 58.96875 13.976562 59.269531 14.136719 59.585938 14.136719 Z M 58.300781 16.101562 C 58.195312 16.101562 58.105469 16.011719 58.105469 15.90625 L 58.105469 11.027344 C 58.105469 10.921875 58.195312 10.832031 58.300781 10.832031 L 58.414062 10.832031 C 58.527344 10.832031 58.632812 10.914062 58.65625 11.019531 L 58.714844 11.261719 C 59 10.945312 59.359375 10.734375 59.757812 10.734375 C 60.480469 10.734375 61.042969 11.140625 61.042969 12.683594 C 61.042969 14.097656 60.628906 14.691406 59.75 14.691406 C 59.339844 14.691406 58.992188 14.503906 58.753906 14.269531 L 58.753906 15.90625 C 58.753906 16.011719 58.664062 16.101562 58.558594 16.101562 L 58.300781 16.101562 "/>
<path style=" stroke:none;fill-rule:nonzero;fill:rgb(98.587036%,78.120422%,2.822876%);fill-opacity:1;" d="M 63.09375 14.667969 C 62.613281 14.667969 62.410156 14.410156 62.410156 13.753906 L 62.410156 9.351562 C 62.410156 9.246094 62.5 9.15625 62.605469 9.15625 L 62.859375 9.15625 C 62.964844 9.15625 63.054688 9.246094 63.054688 9.351562 L 63.054688 13.871094 C 63.054688 14.058594 63.136719 14.136719 63.316406 14.136719 C 63.347656 14.136719 63.378906 14.136719 63.402344 14.128906 C 63.4375 14.128906 63.476562 14.148438 63.484375 14.1875 L 63.519531 14.40625 C 63.542969 14.511719 63.476562 14.613281 63.371094 14.636719 C 63.28125 14.652344 63.183594 14.667969 63.09375 14.667969 "/>
<path style=" stroke:none;fill-rule:nonzero;fill:rgb(98.587036%,78.120422%,2.822876%);fill-opacity:1;" d="M 65.175781 10.132812 C 64.921875 10.132812 64.734375 9.929688 64.734375 9.675781 C 64.734375 9.414062 64.929688 9.210938 65.183594 9.210938 C 65.449219 9.210938 65.644531 9.40625 65.644531 9.675781 C 65.644531 9.929688 65.449219 10.132812 65.175781 10.132812 Z M 65.066406 14.59375 C 64.960938 14.59375 64.871094 14.503906 64.871094 14.398438 L 64.871094 11.335938 L 64.507812 11.273438 C 64.398438 11.261719 64.316406 11.160156 64.316406 11.046875 L 64.316406 11.027344 C 64.316406 10.921875 64.40625 10.832031 64.507812 10.832031 L 65.320312 10.832031 C 65.425781 10.832031 65.515625 10.921875 65.515625 11.027344 L 65.515625 14.398438 C 65.515625 14.503906 65.425781 14.59375 65.320312 14.59375 L 65.066406 14.59375 "/>
<path style=" stroke:none;fill-rule:nonzero;fill:rgb(98.587036%,78.120422%,2.822876%);fill-opacity:1;" d="M 68.296875 11.242188 C 67.863281 11.242188 67.59375 11.46875 67.539062 12.371094 L 69.035156 12.371094 C 69.035156 11.507812 68.839844 11.242188 68.296875 11.242188 Z M 68.382812 14.691406 C 67.398438 14.691406 66.84375 14.121094 66.84375 12.707031 C 66.84375 11.28125 67.425781 10.734375 68.3125 10.734375 C 69.207031 10.734375 69.71875 11.242188 69.71875 12.601562 L 69.71875 12.738281 C 69.71875 12.804688 69.664062 12.859375 69.597656 12.859375 L 67.53125 12.859375 C 67.546875 13.886719 67.773438 14.144531 68.394531 14.144531 C 68.71875 14.144531 68.929688 14.042969 69.125 13.910156 C 69.214844 13.84375 69.34375 13.863281 69.402344 13.949219 L 69.523438 14.105469 C 69.582031 14.1875 69.566406 14.316406 69.476562 14.375 C 69.167969 14.59375 68.855469 14.691406 68.382812 14.691406 "/>
<path style=" stroke:none;fill-rule:nonzero;fill:rgb(98.587036%,78.120422%,2.822876%);fill-opacity:1;" d="M 72.265625 14.136719 C 72.632812 14.136719 72.886719 13.984375 73.15625 13.730469 L 73.15625 11.695312 C 72.941406 11.484375 72.640625 11.289062 72.324219 11.289062 C 71.792969 11.289062 71.558594 11.484375 71.558594 12.695312 C 71.558594 13.902344 71.753906 14.136719 72.265625 14.136719 Z M 72.152344 14.691406 C 71.429688 14.691406 70.867188 14.285156 70.867188 12.738281 C 70.867188 11.328125 71.28125 10.734375 72.160156 10.734375 C 72.574219 10.734375 72.917969 10.960938 73.15625 11.191406 L 73.15625 9.351562 C 73.15625 9.246094 73.25 9.15625 73.351562 9.15625 L 73.609375 9.15625 C 73.714844 9.15625 73.804688 9.246094 73.804688 9.351562 L 73.804688 14.398438 C 73.804688 14.503906 73.714844 14.59375 73.609375 14.59375 L 73.496094 14.59375 C 73.382812 14.59375 73.277344 14.519531 73.25 14.40625 L 73.195312 14.203125 C 72.910156 14.519531 72.550781 14.691406 72.152344 14.691406 "/>
<path style=" stroke:none;fill-rule:nonzero;fill:rgb(98.587036%,78.120422%,2.822876%);fill-opacity:1;" d="M 78.476562 14.691406 C 77.941406 14.691406 77.441406 14.53125 77.078125 14.285156 C 76.988281 14.222656 76.960938 14.097656 77.019531 14.007812 L 77.117188 13.835938 C 77.175781 13.742188 77.296875 13.714844 77.378906 13.773438 C 77.71875 14 77.988281 14.097656 78.421875 14.097656 C 79.113281 14.097656 79.367188 13.78125 79.367188 13.25 C 79.367188 12.617188 79.015625 12.4375 78.386719 12.199219 C 77.53125 11.867188 77.140625 11.523438 77.140625 10.660156 C 77.140625 9.773438 77.695312 9.324219 78.59375 9.324219 C 79.070312 9.324219 79.390625 9.414062 79.675781 9.578125 C 79.765625 9.632812 79.804688 9.75 79.75 9.847656 L 79.652344 10.042969 C 79.601562 10.132812 79.480469 10.171875 79.390625 10.117188 C 79.160156 9.984375 78.933594 9.914062 78.632812 9.914062 C 78.136719 9.914062 77.824219 10.117188 77.824219 10.636719 C 77.824219 11.160156 78.023438 11.3125 78.648438 11.550781 C 79.453125 11.859375 80.082031 12.175781 80.082031 13.210938 C 80.082031 13.976562 79.699219 14.691406 78.476562 14.691406 "/>
<path style=" stroke:none;fill-rule:nonzero;fill:rgb(98.587036%,78.120422%,2.822876%);fill-opacity:1;" d="M 82.773438 14.691406 C 81.8125 14.691406 81.28125 14.058594 81.28125 12.707031 C 81.28125 11.273438 81.851562 10.734375 82.78125 10.734375 C 83.140625 10.734375 83.425781 10.816406 83.699219 11.035156 C 83.789062 11.101562 83.796875 11.222656 83.726562 11.304688 L 83.609375 11.457031 C 83.53125 11.535156 83.414062 11.542969 83.332031 11.476562 C 83.164062 11.347656 83.007812 11.28125 82.757812 11.28125 C 82.1875 11.28125 81.972656 11.53125 81.972656 12.707031 C 81.972656 13.863281 82.210938 14.144531 82.8125 14.144531 C 83.042969 14.144531 83.203125 14.050781 83.359375 13.925781 C 83.441406 13.855469 83.570312 13.863281 83.636719 13.949219 L 83.773438 14.089844 C 83.847656 14.164062 83.839844 14.292969 83.757812 14.359375 C 83.511719 14.578125 83.203125 14.691406 82.773438 14.691406 "/>
<path style=" stroke:none;fill-rule:nonzero;fill:rgb(98.587036%,78.120422%,2.822876%);fill-opacity:1;" d="M 85.710938 10.132812 C 85.457031 10.132812 85.269531 9.929688 85.269531 9.675781 C 85.269531 9.414062 85.464844 9.210938 85.71875 9.210938 C 85.980469 9.210938 86.175781 9.40625 86.175781 9.675781 C 86.175781 9.929688 85.980469 10.132812 85.710938 10.132812 Z M 85.597656 14.59375 C 85.492188 14.59375 85.402344 14.503906 85.402344 14.398438 L 85.402344 11.335938 L 85.042969 11.273438 C 84.929688 11.261719 84.847656 11.160156 84.847656 11.046875 L 84.847656 11.027344 C 84.847656 10.921875 84.9375 10.832031 85.042969 10.832031 L 85.855469 10.832031 C 85.960938 10.832031 86.050781 10.921875 86.050781 11.027344 L 86.050781 14.398438 C 86.050781 14.503906 85.960938 14.59375 85.855469 14.59375 L 85.597656 14.59375 "/>
<path style=" stroke:none;fill-rule:nonzero;fill:rgb(98.587036%,78.120422%,2.822876%);fill-opacity:1;" d="M 88.832031 11.242188 C 88.398438 11.242188 88.128906 11.46875 88.074219 12.371094 L 89.570312 12.371094 C 89.570312 11.507812 89.371094 11.242188 88.832031 11.242188 Z M 88.914062 14.691406 C 87.929688 14.691406 87.375 14.121094 87.375 12.707031 C 87.375 11.28125 87.960938 10.734375 88.847656 10.734375 C 89.742188 10.734375 90.25 11.242188 90.25 12.601562 L 90.25 12.738281 C 90.25 12.804688 90.199219 12.859375 90.132812 12.859375 L 88.066406 12.859375 C 88.082031 13.886719 88.308594 14.144531 88.929688 14.144531 C 89.253906 14.144531 89.464844 14.042969 89.65625 13.910156 C 89.75 13.84375 89.875 13.863281 89.9375 13.949219 L 90.054688 14.105469 C 90.117188 14.1875 90.101562 14.316406 90.011719 14.375 C 89.703125 14.59375 89.386719 14.691406 88.914062 14.691406 "/>
<path style=" stroke:none;fill-rule:nonzero;fill:rgb(98.587036%,78.120422%,2.822876%);fill-opacity:1;" d="M 91.753906 14.59375 C 91.648438 14.59375 91.558594 14.503906 91.558594 14.398438 L 91.558594 11.027344 C 91.558594 10.921875 91.648438 10.832031 91.753906 10.832031 L 91.867188 10.832031 C 91.980469 10.832031 92.078125 10.914062 92.097656 11.019531 L 92.160156 11.296875 C 92.488281 10.96875 92.863281 10.734375 93.308594 10.734375 C 93.847656 10.734375 94.21875 11.011719 94.21875 11.652344 L 94.21875 14.398438 C 94.21875 14.503906 94.125 14.59375 94.023438 14.59375 L 93.765625 14.59375 C 93.660156 14.59375 93.570312 14.503906 93.570312 14.398438 L 93.570312 11.851562 C 93.570312 11.425781 93.449219 11.304688 93.113281 11.304688 C 92.8125 11.304688 92.476562 11.515625 92.203125 11.753906 L 92.203125 14.398438 C 92.203125 14.503906 92.113281 14.59375 92.007812 14.59375 L 91.753906 14.59375 "/>
<path style=" stroke:none;fill-rule:nonzero;fill:rgb(98.587036%,78.120422%,2.822876%);fill-opacity:1;" d="M 97.023438 14.691406 C 96.0625 14.691406 95.527344 14.058594 95.527344 12.707031 C 95.527344 11.273438 96.097656 10.734375 97.03125 10.734375 C 97.390625 10.734375 97.675781 10.816406 97.945312 11.035156 C 98.035156 11.101562 98.042969 11.222656 97.976562 11.304688 L 97.855469 11.457031 C 97.78125 11.535156 97.660156 11.542969 97.578125 11.476562 C 97.410156 11.347656 97.253906 11.28125 97.007812 11.28125 C 96.4375 11.28125 96.21875 11.53125 96.21875 12.707031 C 96.21875 13.863281 96.460938 14.144531 97.058594 14.144531 C 97.292969 14.144531 97.449219 14.050781 97.605469 13.925781 C 97.691406 13.855469 97.816406 13.863281 97.886719 13.949219 L 98.019531 14.089844 C 98.09375 14.164062 98.089844 14.292969 98.003906 14.359375 C 97.757812 14.578125 97.449219 14.691406 97.023438 14.691406 "/>
<path style=" stroke:none;fill-rule:nonzero;fill:rgb(98.587036%,78.120422%,2.822876%);fill-opacity:1;" d="M 100.503906 11.242188 C 100.066406 11.242188 99.796875 11.46875 99.746094 12.371094 L 101.238281 12.371094 C 101.238281 11.507812 101.042969 11.242188 100.503906 11.242188 Z M 100.585938 14.691406 C 99.601562 14.691406 99.046875 14.121094 99.046875 12.707031 C 99.046875 11.28125 99.632812 10.734375 100.519531 10.734375 C 101.410156 10.734375 101.921875 11.242188 101.921875 12.601562 L 101.921875 12.738281 C 101.921875 12.804688 101.871094 12.859375 101.800781 12.859375 L 99.738281 12.859375 C 99.753906 13.886719 99.976562 14.144531 100.601562 14.144531 C 100.925781 14.144531 101.132812 14.042969 101.328125 13.910156 C 101.417969 13.84375 101.546875 13.863281 101.605469 13.949219 L 101.726562 14.105469 C 101.785156 14.1875 101.773438 14.316406 101.683594 14.375 C 101.375 14.59375 101.058594 14.691406 100.585938 14.691406 "/>
<g clip-path="url(#clip7)" clip-rule="nonzero">
<path style=" stroke:none;fill-rule:nonzero;fill:rgb(98.587036%,78.120422%,2.822876%);fill-opacity:1;" d="M 104.117188 14.691406 C 103.707031 14.691406 103.308594 14.554688 103.03125 14.398438 C 102.941406 14.339844 102.910156 14.21875 102.960938 14.128906 L 103.046875 13.984375 C 103.097656 13.886719 103.21875 13.855469 103.308594 13.910156 C 103.570312 14.058594 103.839844 14.148438 104.148438 14.148438 C 104.660156 14.148438 104.816406 13.949219 104.816406 13.59375 C 104.816406 13.171875 104.621094 13.09375 104.019531 12.925781 C 103.496094 12.78125 103.058594 12.507812 103.058594 11.761719 C 103.058594 11.214844 103.414062 10.734375 104.238281 10.734375 C 104.597656 10.734375 104.871094 10.792969 105.109375 10.890625 C 105.207031 10.9375 105.253906 11.054688 105.207031 11.15625 L 105.140625 11.304688 C 105.09375 11.402344 104.980469 11.457031 104.878906 11.410156 C 104.660156 11.3125 104.488281 11.28125 104.261719 11.28125 C 103.855469 11.28125 103.667969 11.425781 103.667969 11.746094 C 103.667969 12.101562 103.824219 12.191406 104.34375 12.332031 C 104.921875 12.488281 105.449219 12.714844 105.449219 13.566406 C 105.449219 14.34375 105.003906 14.691406 104.117188 14.691406 "/>
</g>
</g>
</svg>
